<?xml version="1.0" standalone="no"?>
<!DOCTYPE svg PUBLIC "-//W3C//DTD SVG 20010904//EN"
 "http://www.w3.org/TR/2001/REC-SVG-20010904/DTD/svg10.dtd">
<svg version="1.0" xmlns="http://www.w3.org/2000/svg"
 width="260.000000pt" height="260.000000pt" viewBox="0 0 260.000000 260.000000"
 preserveAspectRatio="xMidYMid meet">
<metadata>
Created by potrace 1.14, written by Peter Selinger 2001-2017
</metadata>
<g transform="translate(0.000000,260.000000) scale(0.100000,-0.100000)"
fill="#000000" stroke="none">
<path d="M696 2493 c-3 -4 -6 -17 -6 -30 0 -36 -24 -37 -61 -4 -37 34 -49 38
-49 17 0 -8 -7 -16 -15 -20 -8 -3 -15 0 -15 7 0 7 -9 13 -20 14 -19 2 -19 1
-2 -22 20 -29 35 -31 56 -9 9 8 16 12 16 7 0 -13 -38 -43 -54 -43 -8 0 -16 5
-18 12 -3 9 -6 9 -12 0 -4 -7 -2 -12 4 -12 8 0 8 -6 0 -20 -10 -19 -4 -24 26
-19 3 0 16 -7 30 -15 13 -9 24 -13 24 -10 0 4 9 -4 21 -17 23 -26 43 -69 40
-83 -1 -4 3 -14 9 -20 5 -7 7 -16 3 -19 -3 -4 -1 -12 5 -20 6 -7 13 -26 16
-42 3 -15 9 -31 13 -34 4 -3 8 -10 8 -16 0 -17 48 -140 57 -146 5 -3 8 -10 7
-15 -2 -5 5 -26 14 -48 9 -21 17 -47 17 -57 0 -11 4 -19 8 -19 4 0 9 -11 10
-26 1 -14 7 -34 13 -45 6 -11 12 -29 14 -39 7 -36 56 -123 96 -171 22 -27 41
-57 42 -69 1 -11 5 -20 9 -20 4 0 7 -3 6 -7 -2 -5 8 -26 21 -48 14 -22 24 -43
23 -47 -1 -5 2 -8 8 -8 5 0 13 -18 16 -40 4 -22 11 -40 17 -40 6 0 7 -3 4 -7
-4 -3 0 -17 8 -30 9 -14 11 -23 5 -23 -6 0 -9 -4 -6 -9 9 -14 -15 -19 -55 -10
-20 5 -60 11 -90 14 -29 3 -58 10 -63 15 -6 6 -22 10 -37 10 -22 0 -176 45
-229 67 -8 3 -17 7 -20 8 -51 17 -194 87 -201 97 -3 6 -8 8 -10 7 -6 -4 -103
54 -107 63 -2 4 -9 8 -15 8 -7 0 -27 14 -44 31 -18 16 -33 27 -33 23 0 -5 -5
-3 -12 4 -20 20 -57 13 -88 -17 -17 -15 -30 -32 -30 -36 0 -8 25 -31 60 -55
12 -8 28 -19 34 -25 6 -5 18 -11 26 -13 8 -2 17 -7 20 -12 3 -4 30 -20 60 -35
30 -16 62 -35 72 -42 9 -8 23 -16 31 -17 20 -3 91 -39 95 -48 2 -5 12 -8 22
-8 10 0 22 -4 25 -10 3 -5 15 -10 26 -10 11 0 17 -4 14 -10 -3 -5 3 -10 15
-10 11 0 28 -4 38 -9 27 -14 80 -33 88 -31 4 1 10 -2 13 -7 5 -7 67 -28 141
-48 8 -2 16 -4 18 -5 1 -2 5 -3 10 -4 4 -2 26 -8 50 -15 24 -6 59 -14 79 -17
74 -9 111 -25 106 -45 -3 -10 -11 -24 -19 -30 -8 -6 -14 -20 -14 -30 0 -11 -4
-19 -10 -19 -5 0 -9 -3 -9 -7 1 -5 0 -10 -1 -13 -3 -7 -10 -100 -11 -135 -1
-50 6 -88 24 -122 10 -18 17 -36 16 -39 0 -4 3 -10 8 -13 16 -11 42 -76 34
-84 -5 -5 -44 -9 -87 -10 -77 -1 -81 0 -109 30 -28 29 -32 30 -60 19 -17 -7
-36 -20 -42 -28 -10 -11 -24 -13 -60 -8 -27 4 -127 7 -224 6 -143 -1 -178 -4
-191 -16 -11 -11 -12 -19 -4 -27 6 -6 22 -25 36 -43 14 -18 34 -42 45 -54 12
-11 24 -28 28 -36 14 -30 104 -135 118 -138 8 -1 31 13 52 33 20 19 42 35 47
35 6 0 9 4 8 9 -4 12 43 52 53 46 4 -3 10 -1 14 4 3 6 13 7 21 4 9 -3 12 -9 7
-12 -16 -11 -43 -86 -39 -106 3 -11 5 -23 5 -26 1 -4 8 -9 16 -13 10 -3 21 7
34 32 11 20 20 33 21 29 0 -4 14 8 31 28 17 19 35 33 39 30 4 -3 13 1 19 8 15
18 106 23 95 5 -6 -10 -5 -11 8 -1 8 7 17 10 20 7 4 -3 21 -8 40 -11 42 -7 62
-11 66 -13 1 -2 7 -4 12 -5 6 -1 13 -4 18 -5 4 -1 10 -2 15 -1 4 0 7 -3 7 -8
0 -5 14 -12 30 -16 17 -4 30 -11 30 -16 0 -6 5 -7 10 -4 6 3 10 2 10 -3 0 -5
10 -13 23 -17 12 -4 24 -8 27 -9 3 -1 15 -7 26 -14 12 -6 24 -9 27 -5 4 3 9
-2 13 -11 3 -9 14 -16 23 -16 10 0 34 -8 53 -18 46 -22 105 -21 145 3 38 23
40 28 36 135 -3 88 -4 101 -2 123 1 23 -12 72 -21 75 -11 4 0 44 18 61 7 8 9
17 4 20 -4 3 -19 26 -33 51 -13 25 -26 47 -29 50 -15 15 -30 59 -28 82 2 27
29 49 36 29 2 -6 11 -11 19 -11 18 0 78 -34 111 -63 12 -11 22 -17 22 -13 0 4
10 -3 23 -14 12 -12 34 -29 50 -38 15 -9 27 -20 27 -24 0 -4 5 -8 12 -8 6 0
37 -19 67 -43 55 -43 92 -65 141 -85 14 -5 38 -15 53 -21 35 -14 134 -15 142
-1 4 6 10 8 15 5 11 -7 61 35 54 46 -2 4 -14 6 -26 4 -11 -3 -42 0 -67 6 -25
6 -53 12 -61 14 -8 2 -22 5 -30 7 -39 9 -271 139 -317 178 -7 5 -15 10 -18 10
-4 0 -25 13 -48 29 -41 28 -192 111 -202 111 -3 0 -9 0 -14 0 -9 0 -35 55 -34
74 0 6 4 29 8 51 4 22 9 83 10 135 3 96 6 117 16 135 8 13 3 118 -9 177 -8 41
-7 51 10 70 10 12 24 23 31 24 7 1 30 6 52 11 22 5 56 7 75 6 19 -2 43 -3 53
-4 9 0 17 -5 17 -11 0 -5 7 -8 15 -4 8 3 15 1 15 -5 0 -6 5 -7 11 -3 6 3 14 3
18 -2 10 -15 111 -65 111 -55 0 12 -47 61 -60 61 -5 0 -10 4 -10 8 0 16 -119
70 -175 79 -58 9 -171 -1 -191 -17 -8 -7 -14 -9 -15 -4 -1 14 -25 -43 -28 -66
0 -5 -12 0 -26 12 -24 20 -34 62 -17 70 4 2 16 21 27 43 11 22 22 42 26 45 3
3 20 41 39 85 32 78 37 98 44 181 2 23 7 47 10 53 4 6 5 11 2 11 -3 0 -1 12 5
28 19 47 20 74 6 96 -8 11 -13 29 -11 39 1 9 -2 17 -7 17 -5 0 -8 3 -8 8 3 18
-2 32 -11 32 -5 0 -9 -3 -9 -7 3 -21 -2 -53 -8 -53 -5 0 -21 11 -37 25 -34 30
-35 30 -32 9 1 -9 11 -23 20 -30 18 -13 13 -40 -5 -28 -5 3 -22 7 -37 10 l-27
4 25 -20 c14 -11 19 -20 13 -20 -7 0 -13 -5 -13 -11 0 -5 5 -7 10 -4 6 3 10 2
10 -3 0 -6 8 -8 19 -5 11 3 21 -2 24 -11 6 -14 -4 -21 -25 -17 -5 0 -8 -4 -8
-9 0 -6 11 -10 25 -10 14 0 25 -2 25 -5 0 -2 -11 -25 -25 -50 -14 -25 -23 -45
-20 -45 4 0 -1 -7 -9 -16 -9 -8 -16 -22 -16 -30 0 -8 -4 -14 -8 -14 -5 0 -9
-6 -9 -12 -1 -41 -25 -75 -34 -49 -4 9 -1 19 5 23 8 6 8 8 -1 8 -6 0 -9 9 -5
22 3 13 1 19 -5 15 -6 -4 -13 2 -16 12 -5 20 -110 75 -115 60 -2 -5 -8 -6 -14
-3 -10 7 -131 -46 -124 -54 3 -2 -5 -14 -16 -27 -16 -19 -25 -22 -44 -15 -19
7 -24 5 -29 -11 -4 -10 -11 -17 -16 -14 -5 4 -9 1 -9 -4 0 -6 5 -11 10 -11 6
0 10 -9 10 -20 0 -11 5 -20 11 -20 5 0 7 -5 3 -12 -4 -6 1 -17 11 -25 11 -7
15 -13 11 -13 -4 0 -1 -7 7 -15 9 -8 14 -23 12 -32 -2 -10 -4 -21 -4 -26 -2
-16 -38 17 -51 47 -7 17 -18 34 -24 38 -6 4 -11 11 -12 15 0 4 -7 22 -14 38
-7 17 -13 33 -12 38 1 4 -3 7 -9 7 -5 0 -7 5 -4 10 3 6 1 10 -5 10 -6 0 -8 5
-5 10 3 6 -1 13 -9 16 -9 3 -14 9 -12 13 2 3 -3 22 -12 41 -8 19 -16 37 -16
40 -1 3 -14 24 -29 47 -15 23 -28 48 -29 55 -2 7 -7 16 -13 20 -5 4 -10 11
-11 15 0 4 -15 39 -32 76 -18 37 -30 72 -27 77 4 6 2 10 -3 10 -6 0 -11 16
-11 35 -4 72 -5 85 -10 85 -8 0 -6 54 2 67 7 12 -17 26 -27 16z m558 -2046 c8
-12 7 -20 -3 -29 -9 -9 -15 -9 -17 -2 -3 6 -18 8 -34 6 -39 -6 -41 22 -2 36
33 13 43 11 56 -11z"/>
<path d="M2355 392 c-40 -35 -40 -35 -180 -38 -97 -2 -136 -7 -202 -29 -45
-14 -85 -30 -88 -35 -4 -6 -11 -8 -16 -5 -5 4 -9 1 -9 -4 0 -6 -5 -11 -11 -11
-16 0 -76 -49 -151 -122 -41 -41 -77 -68 -90 -69 -13 -1 -41 -2 -63 -3 -72 -3
-202 46 -342 129 -24 13 -43 21 -43 17 0 -4 -4 -1 -8 6 -8 12 -24 17 -92 29
-36 6 -38 -5 -2 -12 11 -2 29 -8 40 -14 11 -6 22 -7 26 -4 3 3 6 2 6 -3 0 -6
23 -18 50 -28 28 -10 50 -22 50 -27 0 -5 8 -13 18 -16 9 -4 41 -22 70 -40 28
-19 52 -31 52 -28 0 3 8 1 18 -4 66 -35 272 -35 272 1 0 4 5 8 10 8 6 0 33 16
61 35 41 28 118 60 169 70 3 1 27 4 53 9 27 4 59 10 70 12 12 3 92 7 177 9 85
2 157 5 160 6 3 1 10 0 15 -1 13 -3 145 -6 145 -3 0 1 -25 41 -55 88 -30 47
-52 85 -48 85 8 0 -18 20 -27 20 -3 0 -19 -12 -35 -28z"/>
</g>
</svg>
